# xmcd
#
# Track frame offsets: 
#        150
#        18525
#        39762
#        64240
#        79357
#        103855
#        123670
#        135322
#        157637
#        170777
#
# Disc length: 2456 seconds
#
# Revision: 0
# Processed by: cddbd v1.5.2PL0 Copyright (c) Steve Scherf et al.
# Submitted via: ExactAudioCopyFreeDBPlugin 1.0
#
DISCID=7e09960a
DTITLE=Various Artist - Soul Hits, Volume 2
DYEAR=1999
DGENRE=Soul
TTITLE0=The Dells - Oh What A Night
TTITLE1=Bobby Womack - Let Me Kiss it Where it Hurts
TTITLE2=One Way - Cutie Pie
TTITLE3=Rufus - Sweet Thing
TTITLE4=B.B. King - The Thrill is Gone
TTITLE5=Harold Melvin and The Blue Notes - Reaching For The World
TTITLE6=Bobby Bland - Turn On Your Love Light
TTITLE7=Billy Stuart - Summertime
TTITLE8=Slim Harpo - Baby Scratch My Back
TTITLE9=Clarence Carter - Slip Away Again
EXTD=
EXTT0=
EXTT1=
EXTT2=
EXTT3=
EXTT4=
EXTT5=
EXTT6=
EXTT7=
EXTT8=
EXTT9=
PLAYORDER=
